<svg width="24" height="24" fill="none" xmlns="http://www.w3.org/2000/svg"><path fill-rule="evenodd" clip-rule="evenodd" d="M10.32 4.084A2.358 2.358 0 0 1 12 3.378c.632 0 1.237.255 1.68.706.417.423.66.985.69 1.576a5.892 5.892 0 0 1 2.428 2.016 6.016 6.016 0 0 1 1.074 3.435v2.807a1.209 1.209 0 0 0 .342.841l1.23 1.249A.622.622 0 0 1 19 17.067h-3.753v.266c0 .87-.34 1.705-.947 2.323a3.227 3.227 0 0 1-2.3.966 3.227 3.227 0 0 1-2.3-.966 3.311 3.311 0 0 1-.947-2.323v-.266H5a.622.622 0 0 1-.443-1.06l1.229-1.248c.218-.221.342-.524.342-.84v-2.808a5.962 5.962 0 0 1 3.503-5.45c.028-.592.272-1.154.688-1.577Zm-.323 12.983v.266c0 .546.087.784.463 1.167m-.463-1.433H14c0 .545-.21 1.333-.587 1.715a1.983 1.983 0 0 1-1.413.596c-.528 0-1.163-.496-1.54-.878M12 4.622c-.296 0-.582.12-.794.335a1.17 1.17 0 0 0-.334.82v.304a.622.622 0 0 1-.412.585c-1.794.645-3.088 2.39-3.088 4.445v2.808c0 .64-.25 1.257-.7 1.713l-.186.19h11.028l-.187-.19a2.431 2.431 0 0 1-.7-1.714v-2.807c0-.977-.297-1.929-.851-2.725a4.64 4.64 0 0 0-2.236-1.72.622.622 0 0 1-.412-.585v-.303c0-.31-.121-.605-.334-.82A1.114 1.114 0 0 0 12 4.621Z" fill="#FF645F"/></svg>