<svg width="18" height="15" fill="none" xmlns="http://www.w3.org/2000/svg"><path d="M11.618.57h-.24c-.017 0-.033.008-.048.008a5.53 5.53 0 0 0-.354.032c-.452.07-.887.225-1.282.457a4.538 4.538 0 0 0-1.386 1.29 5.82 5.82 0 0 0-.609 1.09c-.008.017-.016.024-.023.04a5.352 5.352 0 0 0-.777-1.307A4.278 4.278 0 0 0 5.43 1.002 3.642 3.642 0 0 0 3.381.66a3.41 3.41 0 0 0-1.156.36c-.688.353-1.21.89-1.587 1.571-.256.464-.423.97-.52 1.491-.056.28-.087.568-.105.85-.028.374-.011.75.05 1.12.127.714.44 1.339.904 1.885.28.327.593.609.93.872.393.305.802.57 1.218.834.402.257.81.505 1.21.777.642.432 1.234.938 1.787 1.482.432.426.842.875 1.187 1.371.128.184.248.369.328.586.008.023.016.04.023.072.01-.033.018-.049.025-.072.113-.28.28-.537.457-.786.451-.602.967-1.153 1.539-1.643.431-.369.889-.713 1.37-1.01.312-.2.633-.393.954-.585.456-.28.913-.568 1.338-.89.497-.376.945-.8 1.299-1.321a3.91 3.91 0 0 0 .665-1.948c0-.056.008-.112.016-.175v-.313c0-.025-.008-.049-.008-.072a6.168 6.168 0 0 0-.112-1.019 5.196 5.196 0 0 0-.497-1.466 3.967 3.967 0 0 0-1.267-1.459A3.49 3.49 0 0 0 11.778.58c-.047 0-.104 0-.16-.009Z" fill="url(#a)"/><path d="M10.673 6.517a.722.722 0 1 0 0-1.443.722.722 0 0 0 0 1.443Z" fill="#fff"/><path opacity=".5" d="M11.185 7.958a2.549 2.549 0 1 0 0-5.097 2.549 2.549 0 0 0 0 5.098Z" fill="#fff"/><path d="M10.841 5.796a14.877 14.877 0 0 0-1.94 1.786c-.583.65-1.105 1.371-1.458 2.156a5.113 5.113 0 0 0-.376 1.235c-.066.425-.063.857.007 1.282.072.424.225.84.433 1.225.2.385.465.746.747 1.09a5.27 5.27 0 0 1-.843-1.033 4.225 4.225 0 0 1-.304-.601 3.845 3.845 0 0 1-.249-1.995c.064-.45.2-.882.377-1.298.187-.409.412-.798.673-1.162.264-.362.553-.706.858-1.027.312-.32.641-.617.986-.897.352-.272.711-.537 1.09-.761Zm3.399-2.42a1.073 1.073 0 1 0 0-2.148 1.073 1.073 0 0 0 0 2.147Zm-2.213.504a.633.633 0 1 0 .054-1.265.633.633 0 0 0-.054 1.265Z" fill="#fff"/><path d="M16.794 4.593a.986.986 0 1 0 0-1.972.986.986 0 0 0 0 1.972Z" fill="#EF7D19"/><path d="M7.723 13.898s-1.37-.905-2.26-2.902c-.705-1.57-.617-3.525-.617-3.525s1.29.793 2.268 2.965c.81 1.827.61 3.462.61 3.462Z" fill="#fff"/><defs><linearGradient id="a" x1="2.848" y1="9.837" x2="12.514" y2=".17" gradientUnits="userSpaceOnUse"><stop offset=".006" stop-color="#FCEA10"/><stop offset=".231" stop-color="#F7C736"/><stop offset=".498" stop-color="#F19A43"/><stop offset=".725" stop-color="#ED7545"/><stop offset=".899" stop-color="#EB5B44"/><stop offset="1" stop-color="#EA5043"/></linearGradient></defs></svg>