<svg width="24" height="24" fill="none" xmlns="http://www.w3.org/2000/svg"><path d="M12 21c-2.5 0-4.625-.875-6.375-2.625S3 14.5 3 12s.875-4.625 2.625-6.375S9.5 3 12 3c.133 0 .275.004.425.013.15.008.342.02.575.037a5.46 5.46 0 0 0-1.4 1.975 6.256 6.256 0 0 0-.5 2.475c0 1.5.525 2.775 1.575 3.825C13.725 12.375 15 12.9 16.5 12.9c.867 0 1.692-.154 2.475-.463.783-.308 1.442-.737 1.975-1.287.017.2.03.362.038.487S21 11.883 21 12c0 2.5-.875 4.625-2.625 6.375S14.5 21 12 21Zm0-1.5c1.817 0 3.4-.563 4.75-1.688s2.192-2.445 2.525-3.962c-.417.183-.862.32-1.337.412a7.567 7.567 0 0 1-1.438.138c-1.917 0-3.546-.67-4.887-2.013C10.27 11.046 9.6 9.417 9.6 7.5c0-.4.042-.83.125-1.287a9.39 9.39 0 0 1 .45-1.563c-1.633.45-2.988 1.362-4.063 2.737C5.037 8.762 4.5 10.3 4.5 12c0 2.083.73 3.854 2.188 5.313C8.146 18.77 9.916 19.5 12 19.5Z" fill="#E1E5EA"/></svg>