<svg width="24" height="24" viewBox="0 0 24 24" fill="none" xmlns="http://www.w3.org/2000/svg">
<path fill-rule="evenodd" clip-rule="evenodd" d="M18 3H6C4.34315 3 3 4.34315 3 6V18C3 19.6569 4.34315 21 6 21H18C19.6569 21 21 19.6569 21 18V6C21 4.34315 19.6569 3 18 3ZM6 2C3.79086 2 2 3.79086 2 6V18C2 20.2091 3.79086 22 6 22H18C20.2091 22 22 20.2091 22 18V6C22 3.79086 20.2091 2 18 2H6Z" fill="white"/>
<path d="M17.9018 7.11636C18.5083 7.11636 19 6.62469 19 6.01818C19 5.41167 18.5083 4.92 17.9018 4.92C17.2953 4.92 16.8036 5.41167 16.8036 6.01818C16.8036 6.62469 17.2953 7.11636 17.9018 7.11636Z" fill="white"/>
<path d="M14.1117 7.11636H5.27271V17H7.7329V13.7845H12.447L14.5979 17H17.3527L14.9809 13.7696C15.7175 13.6511 16.2478 13.3696 16.5719 12.925C16.896 12.4805 17.0581 11.7692 17.0581 10.8209V10.08C17.0581 9.51688 16.9991 9.07235 16.896 8.73151C16.7929 8.39071 16.6161 8.09436 16.3657 7.82763C16.1005 7.57572 15.8059 7.39789 15.4523 7.27935C15.0988 7.17563 14.6568 7.11636 14.1117 7.11636ZM13.714 11.6062H7.7329V9.2946H13.714C14.0528 9.2946 14.2885 9.35387 14.4064 9.4576C14.5242 9.56133 14.5979 9.75396 14.5979 10.0355V10.8653C14.5979 11.1617 14.5242 11.3543 14.4064 11.458C14.2885 11.5618 14.0528 11.6062 13.714 11.6062Z" fill="white"/>
</svg>
